<?xml version="1.0" encoding="UTF-8" standalone="no"?>
<!-- Created with Inkscape (http://www.inkscape.org/) -->

<svg
   width="64"
   height="64"
   viewBox="0 0 16.933331 16.933332"
   version="1.1"
   id="svg1"
   sodipodi:docname="event.svg"
   inkscape:version="1.3.2 (091e20ef0f, 2023-11-25, custom)"
   xmlns:inkscape="http://www.inkscape.org/namespaces/inkscape"
   xmlns:sodipodi="http://sodipodi.sourceforge.net/DTD/sodipodi-0.dtd"
   xmlns="http://www.w3.org/2000/svg"
   xmlns:svg="http://www.w3.org/2000/svg">
  <sodipodi:namedview
     id="namedview1"
     pagecolor="#505050"
     bordercolor="#ffffff"
     borderopacity="1"
     inkscape:showpageshadow="0"
     inkscape:pageopacity="0"
     inkscape:pagecheckerboard="1"
     inkscape:deskcolor="#505050"
     inkscape:document-units="mm"
     inkscape:zoom="8.9824658"
     inkscape:cx="31.338833"
     inkscape:cy="38.185506"
     inkscape:window-width="1920"
     inkscape:window-height="1080"
     inkscape:window-x="0"
     inkscape:window-y="0"
     inkscape:window-maximized="1"
     inkscape:current-layer="layer1" />
  <defs
     id="defs1" />
  <g
     inkscape:label="Layer 1"
     inkscape:groupmode="layer"
     id="layer1">
    <circle
       style="fill:#000000;fill-opacity:0;stroke:#ffffff;stroke-width:0.260512;stroke-dasharray:none;stroke-opacity:1"
       id="path1"
       cx="8.4666672"
       cy="8.4666672"
       r="8.3364105" />
    <path
       style="color:#000000;fill:#ffffff;stroke-width:1.05833333;stroke-dasharray:none"
       d="m 4.734375,3.96875 c -0.4194144,0 -0.765625,0.3462106 -0.765625,0.765625 v 7.464844 c 0,0.419414 0.3462106,0.765625 0.765625,0.765625 h 7.464844 c 0.419414,0 0.765625,-0.346211 0.765625,-0.765625 V 4.734375 c 0,-0.4194144 -0.346211,-0.765625 -0.765625,-0.765625 z m 0,0.5292969 h 7.464844 c 0.135409,0 0.236328,0.1009188 0.236328,0.2363281 v 7.464844 c 0,0.135409 -0.100919,0.236328 -0.236328,0.236328 H 4.734375 c -0.1354093,0 -0.2363281,-0.100919 -0.2363281,-0.236328 V 4.734375 c 0,-0.1354093 0.1009188,-0.2363281 0.2363281,-0.2363281 z"
       id="rect1" />
    <path
       style="fill:none;stroke:#ffffff;stroke-width:0.397;stroke-dasharray:none;stroke-opacity:1;fill-opacity:1"
       d="M 4.1237749,6.6569507 H 12.695335"
       id="path2" />
    <path
       sodipodi:type="star"
       style="fill:none;stroke:#ffffff;stroke-width:0.585574;stroke-dasharray:none;stroke-opacity:1;fill-opacity:1;stroke-linecap:round;stroke-linejoin:round"
       id="path3"
       inkscape:flatsided="false"
       sodipodi:sides="5"
       sodipodi:cx="8.1002722"
       sodipodi:cy="8.4831944"
       sodipodi:r1="2.0652511"
       sodipodi:r2="1.0326256"
       sodipodi:arg1="-1.5707963"
       sodipodi:arg2="-0.9424778"
       inkscape:rounded="0"
       inkscape:randomized="0"
       d="M 8.1002722,6.4179432 8.7072342,7.6477827 10.064443,7.8449967 9.0823574,8.8022932 9.3141963,10.154018 8.1002722,9.5158199 6.886348,10.154018 7.1181869,8.8022932 6.1361017,7.8449966 7.4933101,7.6477827 Z"
       inkscape:transform-center-y="-0.18180027"
       transform="matrix(0.8858576,0,0,0.92184408,1.2920479,1.9053266)" />
    <path
       id="rect3"
       style="fill:#ffffff;stroke:#ffffff;stroke-width:0.398608;stroke-dasharray:none"
       d="m 6.8735563,3.6388873 h 0.01133 c 0.1796056,0 0.3241975,0.081711 0.3241975,0.1832098 v 1.351639 c 0,0.1014988 -0.1445934,0.1832099 -0.3241975,0.1832099 h -0.01133 c -0.1796056,0 -0.3241972,-0.081711 -0.3241972,-0.1832099 v -1.351639 c 0,-0.1014988 0.1445933,-0.1832098 0.3241972,-0.1832098 z" />
    <path
       id="rect5"
       style="fill:#ffffff;stroke:#ffffff;stroke-width:0.398777"
       d="m 10.313172,3.6389717 h 0.01116 c 0.179604,0 0.3242,0.081704 0.3242,0.1831919 v 1.3515061 c 0,0.1014889 -0.144596,0.1831921 -0.3242,0.1831921 h -0.01116 c -0.179606,0 -0.3241999,-0.081704 -0.3241999,-0.1831921 V 3.8221636 c 0,-0.1014889 0.1445929,-0.1831919 0.3241999,-0.1831919 z" />
  </g>
</svg>
