<?xml version="1.0" encoding="UTF-8" standalone="no"?>
<!-- Created with Inkscape (http://www.inkscape.org/) -->

<svg
   width="64"
   height="64"
   viewBox="0 0 16.933331 16.933332"
   version="1.1"
   id="svg1"
   sodipodi:docname="setting.svg"
   inkscape:version="1.3.2 (091e20ef0f, 2023-11-25, custom)"
   xmlns:inkscape="http://www.inkscape.org/namespaces/inkscape"
   xmlns:sodipodi="http://sodipodi.sourceforge.net/DTD/sodipodi-0.dtd"
   xmlns="http://www.w3.org/2000/svg"
   xmlns:svg="http://www.w3.org/2000/svg">
  <sodipodi:namedview
     id="namedview1"
     pagecolor="#505050"
     bordercolor="#ffffff"
     borderopacity="1"
     inkscape:showpageshadow="0"
     inkscape:pageopacity="0"
     inkscape:pagecheckerboard="1"
     inkscape:deskcolor="#505050"
     inkscape:document-units="mm"
     inkscape:zoom="8.9824658"
     inkscape:cx="31.338833"
     inkscape:cy="38.853474"
     inkscape:window-width="1920"
     inkscape:window-height="1080"
     inkscape:window-x="0"
     inkscape:window-y="0"
     inkscape:window-maximized="1"
     inkscape:current-layer="layer1" />
  <defs
     id="defs1" />
  <g
     inkscape:label="Layer 1"
     inkscape:groupmode="layer"
     id="layer1">
    <circle
       style="fill:#000000;fill-opacity:0;stroke:#ffffff;stroke-width:0.260512;stroke-dasharray:none;stroke-opacity:1"
       id="path1"
       cx="8.4666672"
       cy="8.4666672"
       r="8.3364105" />
    <path
       clip-rule="evenodd"
       d="m 9.6015653,4.1039651 c 0,-0.4110755 -0.3332632,-0.7443194 -0.7443206,-0.7443194 H 8.0760975 c -0.4110585,0 -0.7443204,0.3332439 -0.7443204,0.7443194 v 0.1458592 c 0,0.242765 -0.1629324,0.4536666 -0.3871343,0.5467522 -0.224289,0.093123 -0.4854411,0.057626 -0.6571606,-0.1140973 l -0.156991,-0.15699 c -0.3304921,-0.3304995 -0.8663319,-0.3304995 -1.1968297,0 L 4.5255073,4.9336416 c -0.3304933,0.3304931 -0.3304933,0.8663331 0,1.1968243 L 4.6824984,6.2874566 C 4.8542238,6.4591803 4.8897173,6.7203282 4.7965954,6.9446167 4.703518,7.1688261 4.4926082,7.3317511 4.2498474,7.3317511 H 4.1039662 c -0.4110755,0 -0.7443205,0.3332621 -0.7443205,0.7443197 v 0.7811481 c 0,0.4110583 0.333245,0.7443213 0.7443205,0.7443213 h 0.231557 c 0.1919276,0 0.3591342,0.128186 0.4288307,0.307044 0.066975,0.1718318 0.035044,0.3685578 -0.095375,0.4990138 l -0.1806684,0.180668 c -0.3099626,0.309937 -0.3099626,0.812469 0,1.122464 l 0.5474942,0.547474 c 0.2740707,0.274077 0.7184278,0.274077 0.9925008,0 l 0.025264,-0.02524 c 0.2133739,-0.213353 0.540442,-0.249392 0.8167018,-0.128015 0.2657827,0.116781 0.4615011,0.368383 0.4615011,0.65869 v 0.06573 c 0,0.411058 0.3332618,0.74432 0.7443192,0.74432 H 8.85724 c 0.4110585,0 0.7443193,-0.333262 0.7443193,-0.74432 v -0.145873 c 0,-0.242755 0.1629111,-0.453676 0.3871122,-0.546736 0.2243125,-0.09312 0.4854515,-0.05764 0.6571595,0.114124 l 0.04943,0.0494 c 0.250868,0.25087 0.657612,0.25087 0.908481,0 l 0.696541,-0.696544 c 0.25087,-0.250865 0.25087,-0.657613 0,-0.908479 l -0.04941,-0.04942 c -0.171769,-0.171705 -0.207241,-0.432847 -0.114122,-0.6571608 0.09307,-0.224199 0.303979,-0.387109 0.546735,-0.387109 h 0.145881 c 0.411057,0 0.744321,-0.3332627 0.744321,-0.744321 V 8.0760696 c 0,-0.4110576 -0.333264,-0.7443199 -0.744321,-0.7443199 h -0.06573 c -0.290304,0 -0.54191,-0.1957239 -0.658689,-0.4614989 -0.121369,-0.2762606 -0.08535,-0.6033309 0.128015,-0.8167029 l 0.02526,-0.025242 c 0.274079,-0.274071 0.274079,-0.718421 0,-0.9924878 L 11.710704,4.4883062 c -0.30994,-0.3099579 -0.81247,-0.3099579 -1.122409,0 L 10.407624,4.6689728 C 10.277161,4.79939 10.080432,4.831325 9.9086114,4.7643457 9.7297454,4.6946444 9.6015653,4.5274385 9.6015653,4.3355111 Z M 8.4666717,10.169006 c 0.9402016,0 1.7023403,-0.7621368 1.7023403,-1.7023397 0,-0.9402018 -0.7621387,-1.7023403 -1.7023403,-1.7023403 -0.9402029,0 -1.7023419,0.7621385 -1.7023419,1.7023403 0,0.9402029 0.762139,1.7023397 1.7023419,1.7023397 z"
       fill-rule="evenodd"
       stroke="#09090b"
       stroke-linejoin="round"
       id="path1-4"
       style="fill:none;stroke:#ffffff;stroke-width:0.92604167;stroke-dasharray:none;stroke-opacity:1" />
  </g>
</svg>
