<?xml version="1.0" encoding="UTF-8" standalone="no"?>
<!-- Created with Inkscape (http://www.inkscape.org/) -->

<svg
   width="64"
   height="64"
   viewBox="0 0 16.933331 16.933332"
   version="1.1"
   id="svg1"
   sodipodi:docname="settings.svg"
   inkscape:version="1.3.2 (091e20e, 2023-11-25, custom)"
   xmlns:inkscape="http://www.inkscape.org/namespaces/inkscape"
   xmlns:sodipodi="http://sodipodi.sourceforge.net/DTD/sodipodi-0.dtd"
   xmlns="http://www.w3.org/2000/svg"
   xmlns:svg="http://www.w3.org/2000/svg">
  <sodipodi:namedview
     id="namedview1"
     pagecolor="#505050"
     bordercolor="#ffffff"
     borderopacity="1"
     inkscape:showpageshadow="0"
     inkscape:pageopacity="0"
     inkscape:pagecheckerboard="1"
     inkscape:deskcolor="#505050"
     inkscape:document-units="mm"
     inkscape:zoom="8.9824658"
     inkscape:cx="31.338833"
     inkscape:cy="38.909138"
     inkscape:window-width="1920"
     inkscape:window-height="1009"
     inkscape:window-x="-8"
     inkscape:window-y="-8"
     inkscape:window-maximized="1"
     inkscape:current-layer="layer1" />
  <defs
     id="defs1" />
  <g
     inkscape:label="Layer 1"
     inkscape:groupmode="layer"
     id="layer1">
    <circle
       style="fill:#000000;fill-opacity:0;stroke:#ffffff;stroke-width:0.260512;stroke-dasharray:none;stroke-opacity:1"
       id="path1"
       cx="8.4666672"
       cy="8.4666672"
       r="8.3364105" />
    <path
       clip-rule="evenodd"
       d="M 9.4693,4.6124 C 9.4693,4.2492318 9.174876,3.9548247 8.811724,3.9548247 H 8.121613 c -0.363153,0 -0.657576,0.2944071 -0.657576,0.6575753 v 0.1288606 c 0,0.2144728 -0.143944,0.4007956 -0.342017,0.4830329 -0.19815,0.08227 -0.428867,0.050911 -0.580574,-0.1008003 L 6.402751,4.9847991 c -0.291976,-0.2919826 -0.765368,-0.2919826 -1.057349,0 L 4.9848147,5.3453849 c -0.291977,0.2919769 -0.291977,0.7653694 0,1.0573447 l 0.138695,0.1386947 c 0.1517123,0.1517109 0.1830693,0.3824242 0.1008,0.5805738 -0.08223,0.1980797 -0.26856,0.3420172 -0.483029,0.3420172 h -0.12888 c -0.363168,0 -0.657576,0.2944232 -0.657576,0.6575756 v 0.690112 c 0,0.363153 0.294408,0.657577 0.657576,0.657577 h 0.204571 c 0.16956,0 0.31728,0.113247 0.378854,0.271261 0.05917,0.151806 0.03096,0.3256051 -0.08426,0.4408571 l -0.159613,0.159613 c -0.273839,0.273817 -0.273839,0.717783 0,0.991651 l 0.4836883,0.48367 c 0.24213,0.242136 0.634701,0.242136 0.876833,0 l 0.02232,-0.02229 c 0.188507,-0.188488 0.477458,-0.220327 0.721522,-0.113096 0.234808,0.103172 0.407717,0.325452 0.407717,0.581926 v 0.05806 c 0,0.363153 0.294423,0.657576 0.657575,0.657576 H 8.81172 c 0.363153,0 0.657575,-0.294423 0.657575,-0.657576 V 12.19206 c 0,-0.214465 0.143925,-0.400804 0.341997,-0.483019 0.198171,-0.08227 0.428876,-0.05093 0.580573,0.100824 l 0.04367,0.04365 c 0.221632,0.221633 0.580974,0.221633 0.802605,0 l 0.615366,-0.615367 c 0.221633,-0.22163 0.221633,-0.580974 0,-0.802604 l -0.04365,-0.04367 c -0.15175,-0.151694 -0.183088,-0.382403 -0.100823,-0.5805741 0.08222,-0.198071 0.268554,-0.341995 0.483019,-0.341995 h 0.12888 c 0.363152,0 0.657576,-0.294424 0.657576,-0.657577 v -0.690138 c 0,-0.3631524 -0.294424,-0.6575758 -0.657576,-0.6575758 h -0.05807 c -0.256472,0 -0.478755,-0.172914 -0.581925,-0.4077152 -0.107224,-0.2440648 -0.0754,-0.5330179 0.113096,-0.7215232 l 0.02231,-0.0223 c 0.242137,-0.2421304 0.242137,-0.6346953 0,-0.8768219 l -0.48371,-0.4837042 c -0.273819,-0.2738349 -0.717784,-0.2738349 -0.991602,0 L 10.181419,5.1115609 C 10.066161,5.2267792 9.892359,5.2549924 9.740563,5.195819 9.582542,5.1342407 9.4693,4.9865212 9.4693,4.8169613 Z M 8.466669,9.9706129 c 0.830629,0 1.503947,-0.673317 1.503947,-1.503947 0,-0.8306294 -0.673318,-1.5039471 -1.503947,-1.5039471 -0.83063,0 -1.503948,0.6733177 -1.503948,1.5039471 0,0.83063 0.673318,1.503947 1.503948,1.503947 z"
       fill-rule="evenodd"
       stroke="#09090b"
       stroke-linejoin="round"
       id="path1-4"
       style="fill:none;stroke:#ffffff;stroke-width:0.501316;stroke-opacity:1" />
  </g>
</svg>
